<svg xmlns="https://www.w3.org/2000/svg" version="1" x="0" y="0" width="174" height="52" viewBox="0 0 162.3 48.2" enable-background="new 0 0 162.3 48.2" xml:space="preserve" style="margin-top: 25px;"><path fill="#CFB56A" d="M47.1 34.1h0.5c1.2 0 1.7 0.1 2.3 0.3 1 0.4 1.5 1.3 1.5 2.4 0 1.5-1 2.6-3 3l-0.2 0.1c1.3 0.5 2.1 1.5 2.1 2.7 0 1.3-0.9 2.4-2.4 2.6 -0.5 0.1-0.9 0.1-1.7 0.1 -0.3 0-0.7 0-0.8 0h-4.2l0.1-0.3c0.9-0.1 1.1-0.3 1.5-1.4l0.1-0.3 0-0.2 2.2-6.9 0-0.2 0.1-0.3c0.1-0.3 0.2-0.6 0.2-0.7 0-0.4-0.4-0.6-1.1-0.6l0.1-0.3H47.1zM44 44.9h1 0.4c1.5 0 2.1-0.1 2.6-0.7 0.5-0.5 0.8-1.4 0.8-2.2 0-0.9-0.4-1.6-1.1-1.9 -0.4-0.1-0.9-0.2-1.6-0.2h-0.5L44 44.9zM46.7 39.6h0.3c0.8 0 1.3-0.1 1.8-0.5 0.7-0.6 1.2-1.6 1.2-2.6 0-1.2-0.8-2-1.8-2 -0.5 0-0.8 0.1-1 0.6 -0.1 0.2-0.1 0.3-0.3 0.8 -0.1 0.3-0.2 0.5-0.2 0.8l-1 3H46.7zM52.9 45.4c-0.9 0-1.5-0.7-1.5-1.7 0-1.4 0.9-3.3 2.2-4.7 0.9-1 1.6-1.5 2.3-1.5 0.7 0 1.1 0.4 1.1 1 0 0.4-0.2 0.9-0.5 1.2 -0.5 0.6-1.4 1.2-2.6 1.9 -0.4 0.2-0.5 0.3-0.7 0.4 -0.2 0.6-0.4 1.6-0.4 2 0 0.5 0.3 0.8 0.6 0.8 0.6 0 1.3-0.6 2.1-1.8l0.1-0.2 0.2 0.1C54.9 44.5 53.8 45.4 52.9 45.4zM54.9 40.4c0.9-0.9 1.3-1.6 1.3-2.2 0-0.3-0.2-0.5-0.4-0.5 -0.4 0-0.9 0.4-1.4 1.3 -0.5 0.8-0.8 1.5-1.1 2.5C53.8 41.3 54.4 40.9 54.9 40.4zM58.3 43.8c0 0-0.2 0.5-0.2 0.6 0 0.1 0.1 0.1 0.1 0.1 0.2 0 0.9-0.7 1.7-2l0.1-0.1 0.2 0.2 -0.1 0.1c-1.1 1.7-2.1 2.7-3 2.7 -0.3 0-0.5-0.2-0.5-0.6 0-0.2 0.1-0.6 0.2-1l0.5-1.3 2.9-7.2c0.2-0.5 0.2-0.6 0.2-0.7 0-0.2-0.1-0.2-0.7-0.3h-0.2l0.1-0.2h2.4L58.3 43.8zM66.2 39c0 1.6-1.3 3.1-2.8 3.1 -0.2 0-0.3 0-0.5-0.1l-0.1 0.1c-0.4 0.3-0.6 0.5-0.6 0.7 0 0.2 0.2 0.3 1 0.6l0.9 0.3c1.1 0.3 1.5 0.6 1.8 1 0.2 0.2 0.3 0.5 0.3 0.8 0 1.1-1.2 1.8-3.1 1.8 -1.8 0-3-0.5-3-1.3 0-0.5 0.4-1 1.2-1.4l0.6-0.3c0.1 0 0.1-0.1 0.2-0.1 -0.5-0.3-0.7-0.5-0.7-0.9 0-0.5 0.4-0.9 1.2-1.5 -0.5-0.4-0.8-1-0.8-1.7 0-1.5 1.4-2.8 2.9-2.8 0.6 0 1 0.2 1.3 0.6 0.3-0.1 0.3-0.1 0.7-0.3 0.3-0.2 0.6-0.3 0.9-0.3 0.3 0 0.6 0.2 0.6 0.5 0 0.3-0.2 0.5-0.6 0.5 -0.2 0-0.3 0-0.6-0.1 -0.2-0.1-0.3-0.1-0.4-0.1 -0.1 0-0.2 0-0.4 0.1C66.2 38.6 66.2 38.7 66.2 39zM62.2 44.6c-1 0.4-1.2 0.7-1.2 1.1 0 0.7 0.8 1.1 2.1 1.1 0.6 0 1.3-0.1 1.8-0.3 0.5-0.2 0.7-0.4 0.7-0.7 0-0.4-0.3-0.6-0.9-0.8l-0.9-0.3 -1-0.3c-0.1 0-0.2 0-0.2 0C62.5 44.4 62.4 44.5 62.2 44.6zM64.7 37.7c-0.4 0-0.8 0.3-1.1 0.8 -0.5 0.8-0.9 1.9-0.9 2.6 0 0.5 0.2 0.8 0.5 0.8 0.3 0 0.7-0.3 1.1-0.9 0.5-0.8 0.9-1.8 0.9-2.5C65.3 38 65.1 37.7 64.7 37.7zM69.2 44.5c-0.6 0.6-1.1 0.9-1.5 0.9 -0.3 0-0.5-0.2-0.5-0.6 0-0.2 0.1-0.7 0.3-1.1l0.1-0.3 0.2-0.4 1.7-4 0.1-0.2c0.1-0.1 0.1-0.2 0.1-0.3 0-0.1-0.1-0.1-0.1-0.1 -0.1 0-0.2 0.1-0.6 0.5 -0.4 0.4-0.8 1-1.1 1.4l-0.2-0.1c1-1.6 2.3-2.8 3-2.8 0.3 0 0.5 0.2 0.5 0.5 0 0.2 0 0.3-0.1 0.7 -0.1 0.2-0.2 0.6-0.4 0.9 -0.1 0.2-0.1 0.4-0.2 0.4l-1.5 4L68.7 44c-0.1 0.2-0.1 0.2-0.1 0.3 0 0.1 0 0.1 0.1 0.1 0.1 0 0.3-0.1 0.8-0.7 0.3-0.4 0.5-0.7 0.7-0.9l0.2 0.1C70.2 43.4 69.7 44 69.2 44.5zM70.8 35.8c-0.4 0-0.8-0.4-0.8-0.8 0-0.5 0.4-0.8 0.8-0.8 0.5 0 0.8 0.4 0.8 0.8C71.6 35.4 71.2 35.8 70.8 35.8zM77.2 41.9c0 0.1-0.1 0.2-0.2 0.4l-0.4 1.1c-0.2 0.5-0.3 0.8-0.3 1 0 0.1 0 0.1 0.1 0.1 0.1 0 0.5-0.3 0.8-0.7 0.2-0.3 0.4-0.5 0.7-0.9l0.2 0.1c-0.2 0.4-0.7 1-1.1 1.4 -0.6 0.7-1.1 1-1.6 1 -0.3 0-0.5-0.2-0.5-0.5 0-0.1 0-0.3 0.2-0.8 0 0 0.5-1.5 0.5-1.6l0-0.1c-0.4 0.5-1 1.3-1.3 1.6 -0.8 0.8-1.7 1.4-2.2 1.4 -0.3 0-0.5-0.3-0.5-0.7 0-0.4 0.1-0.8 0.4-1.5l0.2-0.5 1-2.4 0.2-0.4 0.3-0.6c0.2-0.5 0.2-0.6 0.2-0.8 0-0.1-0.1-0.2-0.1-0.2 -0.1 0-0.3 0.1-0.5 0.4 -0.3 0.3-0.6 0.7-0.9 1.1l-0.2 0.3c0 0 0 0-0.1 0.1l-0.2-0.1c0.9-1.6 2.1-2.8 2.8-2.8 0.3 0 0.5 0.2 0.5 0.7 0 0.4-0.2 1-0.5 1.9l-0.1 0.3L73.5 43l-0.1 0.4 -0.2 0.5c-0.1 0.3-0.1 0.3-0.1 0.4 0 0.1 0.1 0.2 0.2 0.2 0.7 0 2.6-2.5 3.7-5l0.9-2h1.2L77.2 41.9zM89.9 42.8c-0.4 0.6-1 1.2-1.5 1.8 -0.6 0.5-1.1 0.8-1.5 0.8 -0.3 0-0.4-0.2-0.4-0.5 0-0.2 0.1-0.5 0.2-0.8 0.1-0.1 0.1-0.2 0.3-0.6 0.1-0.2 0.1-0.3 0.1-0.3l1.7-3.7 0.1-0.3c0.2-0.4 0.2-0.5 0.2-0.6 0-0.2-0.1-0.3-0.3-0.3 -0.2 0-0.5 0.2-1 0.7 -1.5 1.6-2.7 3.3-3.8 5.7 -0.2 0.4-0.2 0.4-0.3 0.6h-1.2c0.2-0.4 0.4-0.8 1-2.1 0.5-1 0.7-1.7 1-2.4 0.5-1.5 0.7-2 0.7-2.3 0-0.2-0.1-0.3-0.2-0.3 -0.2 0-0.6 0.3-1.1 0.9 -0.9 1-1.6 2-2.4 3.4 -0.1 0.3-0.3 0.7-0.7 1.3 -0.4 0.7-0.5 1.1-0.7 1.4h-1.2l1.3-3.1c0-0.1 0.1-0.2 0.2-0.5 0.4-1 0.8-1.9 1-2.5 0.1-0.4 0.2-0.6 0.2-0.7 0-0.1 0-0.1-0.1-0.1 -0.3 0-1 0.9-1.8 2.3l-0.2-0.1 0-0.1c1-1.8 2.1-3.1 2.8-3.1 0.3 0 0.5 0.3 0.5 0.7 0 0.2 0 0.4-0.1 0.8 -0.1 0.3-0.3 0.9-0.4 1.3l-0.2 0.6c0 0-0.1 0.2-0.1 0.4 0.1-0.2 0.2-0.3 0.2-0.3l0.6-0.7c0.5-0.8 1.6-1.9 2.1-2.3 0.4-0.3 0.6-0.4 0.9-0.4 0.4 0 0.7 0.3 0.7 0.7 0 0.2-0.1 0.5-0.2 0.9 -0.1 0.4-0.3 1.1-0.6 1.7 -0.2 0.7-0.1 0.4-0.2 0.7l0.3-0.4c0.9-1.4 1.5-1.9 2.4-2.7 0.6-0.5 1.1-0.8 1.5-0.8 0.5 0 0.8 0.3 0.8 0.7 0 0.3-0.1 0.7-0.3 1L90 39.7c0 0.1-0.1 0.2-0.1 0.2l-1.8 3.7 -0.1 0.3c-0.2 0.3-0.1 0.2-0.1 0.3 0 0.1 0.1 0.1 0.1 0.1 0.2 0 0.7-0.4 1.6-1.6l0.1-0.1L89.9 42.8zM97.6 42.9c-0.1 0.3-0.2 0.6-0.2 0.7l-0.2 0.6c0 0.1-0.1 0.2-0.1 0.3 0 0.3 0.3 0.3 1.1 0.4l-0.1 0.3h-3.8l0.1-0.3c1-0.1 1.1-0.2 1.8-2.2l2.3-6.7c0 0-0.3 0.1-0.6 0.2 -0.3 0.1-1.1 0.2-1.1 0.2l0-0.2c1.1-0.4 2.2-1 3.4-1.7l0.2 0.2L97.6 42.9zM102.9 41.6c-1 0-1.8-0.8-1.8-1.8 0-1.1 0.7-2.8 1.7-3.8 0.8-0.8 1.6-1.3 2.3-1.3 1.2 0 2 1.1 2 2.7 0 3.3-2.9 6.8-6.8 8.1l-0.1-0.3c1.8-0.9 3.2-2.1 4-3.8C103.7 41.6 103.4 41.6 102.9 41.6zM105.2 35.2c-0.5 0-1 0.5-1.6 1.4 -0.6 1-1.1 2.6-1.1 3.6 0 0.7 0.3 1.1 0.9 1.1 0.6 0 1.1-0.4 1.6-1.4 0.6-1.2 1-2.6 1-3.6C106 35.6 105.6 35.2 105.2 35.2zM110.2 44.1h0.4c1 0 1.1-0.1 1.3-0.7l0.3 0.1 -0.7 1.9h-5.3c0.3-0.8 0.6-1.4 1.1-2.2 0.8-1.1 1.5-1.9 3.4-3.6 1.6-1.4 2.1-2.1 2.1-3 0-0.8-0.5-1.2-1.3-1.2 -1 0-2 0.7-2.9 1.9l-0.4-0.2c1-1.5 2.4-2.4 3.9-2.4 1.3 0 2.1 0.7 2.1 1.7 0 0.6-0.2 1.2-0.6 1.7 -0.5 0.6-0.9 0.9-2.6 2.1 -2.3 1.7-3.1 2.6-3.6 3.8H110.2zM116.9 38.8c0.3-0.1 0.6-0.2 0.9-0.2 1.2 0 2 0.8 2 1.9 0 1.1-0.7 2.8-1.8 3.9 -0.8 0.8-1.5 1.1-2.2 1.1 -1.2 0-1.9-1.1-1.9-2.8 0-2 1.1-4.1 2.9-5.6 1.1-0.9 2.4-1.7 3.9-2.3l0.2 0.3C119.1 36.2 117.9 37.2 116.9 38.8zM117.6 39.1c-0.6 0-1.1 0.5-1.5 1.4 -0.7 1.3-1.1 2.5-1.1 3.4 0 0.7 0.3 1.2 0.8 1.2 0.5 0 1.1-0.6 1.6-1.6 0.6-1.1 1.1-2.5 1.1-3.2C118.6 39.6 118.1 39.1 117.6 39.1z"/><path fill-rule="evenodd" clip-rule="evenodd" fill="#CFB56A" d="M47.9 1.1c7.9 0 14 5 14 13.1 0 7.8-5.8 14.3-14.2 14.3 -9.6 0-13.8-7.4-13.8-13.7C33.9 9.1 38.2 1.1 47.9 1.1M48.6 26.9c3.1 0 9.3-2 9.3-11.7 0-7.5-4.8-12.6-10.3-12.6 -5.8 0-9.8 3.9-9.9 11.2C37.8 21.4 42.3 26.9 48.6 26.9zM70.1 25.4c0.2-1.5 0.2-4.2 0.2-7.6v-6.1c0-5.5 0-6.4-0.1-7.5l0-2.5c0.4 0 4.5-0.1 6.6-0.1 3.5 0 10.1-0.3 14.3 4 1.8 1.8 3.4 4.7 3.4 8.9 0 4.4-1.8 7.8-3.8 9.8 -1.5 1.6-4.9 4-10.9 4 -3 0-9.5-0.4-9.8-0.4L70.1 25.4M73.8 15.5c0 3.7 0 6.9 0.1 7.6 0 0.9 0.2 2 0.5 2.4 0.4 0.7 1.3 1.4 5.5 1.4 3.3 0 5.8-0.9 7.9-3 1.8-1.8 2.8-5.1 2.8-8.3 0-4.4-1.9-7.3-3.3-8.8C83.9 3.2 80.4 3 76.2 3c-0.7 0-1.6 0.1-1.9 0.2 -0.3 0.1-0.4 0.3-0.4 0.7 0 1.2 0 4.5 0 7.2V15.5zM102.6 25.4c0.2-1.5 0.2-4.2 0.2-7.6v-6.1c0-5.5 0-6.4-0.1-7.5l-0.2-2.6c0.5 0 1.4 0.1 2.1 0.1 0.5 0 1.5-0.1 1.9-0.1l-0.1 2.6c-0.1 1.1-0.1 2.1-0.1 7.5v6.1c0 3.4 0 6.1 0.2 7.6l0.2 2.5c-0.8 0-1.2-0.1-2.2-0.1 -0.9 0-1.5 0.2-2.1 0.1L102.6 25.4zM22 19.1c0-2.8 0-4.2 0-4.2 0.6 0 1.1 0.1 1.8 0.1 0.5 0 1.3-0.1 1.9-0.1l0 2.6c-0.1 1.1-0.1 2.2-0.1 3.6V25c0 1.6 0 1.6-0.5 1.9 -2.2 1.2-5.7 1.6-7.7 1.6 -3.3 0-8.5-0.6-12-3.9 -2-2-4.2-5.5-4.2-9.8 0-5.6 2.8-9.5 5.9-11.5 3.1-2 7-2.2 9.7-2.2 2.2 0 4.8 0.5 5.5 0.6 0.7 0.2 2 0.3 2.8 0.3 0.3 0 0.4 0.2 0.4 0.3 0 0.5-0.2 0.2-0.2 3.8 0 0.4-0.4 0.2-0.8-0.2 0 0-0.5-0.4-0.8-0.6 -1.2-1.1-3.6-2.7-8.1-2.7 -2.2 0-4.6 0.2-7 2.1 -2 1.6-3.5 4.8-3.5 8.9 0 4.9 2.5 8.5 3.7 9.7 2.8 2.7 5.5 3.5 8.8 3.6 1.3 0 2.8-0.1 3.6-0.6C21.8 26 22 25.6 22 25V19.1zM135.3 1.6c0.2 0 1.1 0.1 1.5 0.1 0.2 0 0.2 0 1.3 0l-1.7 4.1c-0.4 1-2.2 5.1-4.1 9.5 -2.2 5.1-3.8 8.9-4.6 10.6 -1 2.1-1.2 2.6-1.5 2.6 -0.4 0-0.7-0.5-1.3-2.2l-8.7-21.4 -1.3-3.3c0.6 0 1.8 0.1 2.2 0.1 0.4 0 1.8-0.1 2.2-0.1 0 0 0.9 2.9 1.4 4.3l6.4 16.8c2-4.7 6.5-15.8 7.2-18.3C134.6 3.8 135.3 1.6 135.3 1.6zM156.7 26.5l-3-8c-0.1-0.1-0.1-0.2-0.3-0.2h-7.5c-0.2 0-0.3 0.1-0.4 0.3l-2 5.5c-0.3 0.9-1.4 3.8-1.4 3.8s-0.7 0-1.1 0c-0.4 0-1 0.1-1.4 0l1.5-3.8 8.2-21.6c0.4-1.2 0.7-1.4 0.9-1.4 0.2 0 0.5 0.3 0.9 1.3 0.5 1.3 6.1 15.6 8.2 20.9l1.7 4.6c-0.5 0-1.4 0-3.9-0.1L156.7 26.5M152.9 16.7c0.2 0 0.2-0.1 0.1-0.2l-3.2-9.4c-0.1-0.3-0.2-0.3-0.4 0l-3.1 9.4c-0.1 0.2 0 0.2 0.1 0.2H152.9z"/></svg>